<?xml version="1.0" standalone="no"?> <!DOCTYPE svg PUBLIC "-//W3C//DTD SVG 1.0//EN" "http://www.w3.org/TR/2001/REC-SVG-20010904/DTD/svg10.dtd" > <svg xmlns="http://www.w3.org/2000/svg" width="100%" height="100%">
<defs >
<font id="gillsansstd" horiz-adv-x="407" ><font-face
    font-family="Gill Sans Std"
    units-per-em="1000"
    panose-1="2 11 5 2 2 1 4 2 2 3"
    ascent="682"
    descent="-318"
    alphabetic="0" />
<missing-glyph horiz-adv-x="500" d="M0 0V700H500V0H0ZM250 395L420 650H80L250 395ZM280 350L450 95V605L280 350ZM80 50H420L250 305L80 50ZM50 605V95L220 350L50 605Z" />
<glyph unicode=" " glyph-name="space" horiz-adv-x="278" />
<glyph unicode="!" glyph-name="exclam" horiz-adv-x="271" d="M79 543Q79 691 135 691T191 543Q191 476 185 436L160 264Q151 201 135 201T110 264L85 436Q79 476 79 543ZM111 111T136 111T178 94T196 51T179 9T136 -9T94 8T76 51T93 93Z" />
<glyph unicode="&quot;" glyph-name="quotedbl" horiz-adv-x="354" d="M241 462L218 599V716H306V599L283 462H241ZM71 462L48 599V716H136V599L113 462H71Z" />
<glyph unicode="#" glyph-name="numbersign" horiz-adv-x="584" d="M196 617H268L227 422H421L462 617H534L493 422H584V353H479L443 183H584V114H429L388 -81H316L357 114H163L122 -81H50L91 114H1V183H105L141 353H1V422H155L196 617ZM213 353L177 183H371L407
353H213Z" />
<glyph unicode="$" glyph-name="dollar" horiz-adv-x="542" d="M470 596V488Q444 514 403 536T321 567V369Q406 346 454 295T502 176Q502 111 455 56T321 -9V-118H239V-9Q164 -5 51 61V182Q101 137 139 116T239 81V297Q148 321 100 369T52 472Q52 545 102 593T239
655V691H321V655Q356 652 399 635T470 596ZM239 396V567Q200 562 175 539T150 485Q150 426 239 396ZM321 262V82Q406 102 406 168Q406 199 387 221T321 262Z" />
<glyph unicode="%" glyph-name="percent" horiz-adv-x="680" d="M502 222Q470 222 447 199T423 143Q423 110 446 87T502 64Q535 64 558 87T581 143Q581 175 558 198T502 222ZM502 296Q564 296 609 251T655 143T610 35T502 -10Q439 -10 394 34T349 143Q349 206
394 251T502 296ZM602 691L153 -10H78L527 691H602ZM178 690Q240 690 285 645T331 537T286 429T178 384Q115 384 70 428T25 537Q25 600 70 645T178 690ZM178 616Q146 616 123 593T99 537Q99 504 122 481T178 458Q211 458 234 481T257 537Q257 569 234 592T178 616Z"
/>
<glyph unicode="&amp;" glyph-name="ampersand" horiz-adv-x="625" d="M495 339H593Q562 250 482 160L620 0H494L416 93Q303 -9 200 -9Q130 -9 79 38T28 153Q28 261 189 354Q112 435 112 512Q112 583 160 626T287 669Q358 669 404 627T451 521Q451 471 422 428T326
339L422 229Q466 273 495 339ZM356 161L245 289Q182 249 154 220T126 153Q128 124 152 103T210 81Q276 81 356 161ZM208 521Q208 466 271 405Q323 438 341 463T360 516Q360 546 338 566T282 586Q250 586 229 568T208 521Z" />
<glyph unicode="&apos;" glyph-name="quotesingle" horiz-adv-x="188" d="M73 462L50 599V716H138V599L115 462H73Z" />
<glyph unicode="(" glyph-name="parenleft" horiz-adv-x="323" d="M167 502T167 232T311 -230H258Q168 -141 116 -18T64 232T116 481T258 694H311Q167 502 167 232Z" />
<glyph unicode=")" glyph-name="parenright" horiz-adv-x="323" d="M156 -38T156 232T12 694H65Q155 605 207 482T259 232T207 -17T65 -230H12Q156 -38 156 232Z" />
<glyph unicode="*" glyph-name="asterisk" horiz-adv-x="417" d="M177 513L49 557Q28 564 17 580T16 615Q30 633 47 631T82 614L182 527Q193 536 202 538L177 668Q173 689 180 707T210 726T239 709T242 668L217 538Q230 535 237 526L337 613Q353 627 370 629T403
613Q414 594 403 579T369 556L244 513Q246 507 244 490L369 447Q390 440 401 424T402 389Q388 371 371 373T336 390L236 477Q226 470 216 467L241 336Q245 315 238 297T208 278Q166 279 176 336L201 467Q189 472 182 479L81 391Q65 377 47 375T15 391Q4 410 15
425T49 448L176 492Q172 502 177 513Z" />
<glyph unicode="+" glyph-name="plus" horiz-adv-x="584" d="M251 589H333V394H528V312H333V117H251V312H56V394H251V589Z" />
<glyph unicode="," glyph-name="comma" horiz-adv-x="219" d="M59 -118V-99Q83 -83 92 -51T95 10Q73 11 60 26T46 66T62 107T105 123Q137 123 156 97T176 26Q176 -20 146 -61T59 -118Z" />
<glyph unicode="-" glyph-name="hyphen" horiz-adv-x="323" d="M283 267V174H40V267H283Z" />
<glyph unicode="." glyph-name="period" horiz-adv-x="219" d="M84 111T109 111T151 94T169 51T152 9T109 -9T67 8T49 51T66 93Z" />
<glyph unicode="/" glyph-name="slash" horiz-adv-x="281" d="M8 -9L204 691H274L78 -9H8Z" />
<glyph unicode="0" glyph-name="zero" horiz-adv-x="500" d="M470 498T470 341T410 88T250 -9T91 87T30 341T90 594T250 691T409 595ZM372 221T372 341T340 529T250 598T161 530T128 341T160 153T250 84T339 152Z" />
<glyph unicode="1" glyph-name="one" horiz-adv-x="500" d="M300 682V0H202V682H300Z" />
<glyph unicode="2" glyph-name="two" horiz-adv-x="500" d="M466 93V0H34V7Q52 29 73 55T116 107T159 161T200 215T238 269T271 321Q298 367 308 397T319 467Q319 523 286 559T202 595Q120 595 48 503V626Q129 691 209 691Q301 691 359 632T417 478Q417 398 371
317T205 93H466Z" />
<glyph unicode="3" glyph-name="three" horiz-adv-x="500" d="M81 569V662Q140 691 212 691Q303 691 358 643T413 513Q413 456 393 421T326 360Q374 345 399 300T424 198Q424 107 364 49T209 -9Q140 -9 64 30V136Q141 84 216 84Q266 84 296 113T326 193Q326 246
288 278T180 307V397Q247 397 281 423T315 496T283 570T197 598Q146 598 81 569Z" />
<glyph unicode="4" glyph-name="four" horiz-adv-x="500" d="M398 691V312H471V224H398V0H300V224H11V269L356 691H398ZM298 506L142 312H300V506H298Z" />
<glyph unicode="5" glyph-name="five" horiz-adv-x="500" d="M404 682V594H190V423Q303 430 370 368T438 209Q438 114 375 53T215 -9Q133 -9 50 33V134Q124 84 199 84Q257 84 298 120T340 207Q340 277 274 315T101 327V682H404Z" />
<glyph unicode="6" glyph-name="six" horiz-adv-x="500" d="M317 691L376 616Q303 574 246 506T167 366Q221 394 274 394Q356 394 410 337T465 195Q465 112 406 52T264 -9Q166 -9 105 58T44 233Q44 363 115 483T317 691ZM146 265Q128 186 164 135T258 84Q307 84
337 115T367 196Q367 241 335 271T254 301Q223 301 201 294T146 265Z" />
<glyph unicode="7" glyph-name="seven" horiz-adv-x="500" d="M490 682L181 -9L94 29L344 589H49V682H490Z" />
<glyph unicode="8" glyph-name="eight" horiz-adv-x="500" d="M468 184Q468 102 406 47T252 -9Q159 -9 96 47T32 185Q32 291 129 348Q48 407 48 495Q48 579 108 635T257 691Q343 691 400 635T458 493Q458 404 373 348Q419 324 443 281T468 184ZM360 495Q360 539
331 568T255 598Q206 598 176 571T146 497Q146 455 178 424T253 393Q297 393 328 423T360 495ZM370 192Q370 239 337 269T252 300Q197 300 164 270T130 192Q130 145 164 115T250 84Q307 84 338 115T370 192Z" />
<glyph unicode="9" glyph-name="nine" horiz-adv-x="500" d="M187 -9L127 63Q212 118 266 186T335 319Q287 290 229 290Q148 290 92 348T36 489Q36 569 94 630T244 691Q338 691 399 621T461 442Q461 318 384 191T187 -9ZM134 490Q134 446 168 415T250 383Q302
383 355 420Q360 444 360 475Q360 525 327 561T246 598Q197 598 166 568T134 490Z" />
<glyph unicode=":" glyph-name="colon" horiz-adv-x="219" d="M84 458T109 458T151 441T169 398T152 356T109 338T67 355T49 398T66 440ZM84 111T109 111T151 94T169 51T152 9T109 -9T67 8T49 51T66 93Z" />
<glyph unicode=";" glyph-name="semicolon" horiz-adv-x="219" d="M61 -115V-96Q89 -72 96 -49T101 11Q77 14 63 30T48 70Q48 99 65 115T108 131Q138 131 156 104T175 38Q175 -18 146 -58T61 -115ZM169 423T169 398T152 356T109 338T67 355T49 398T66 440T109
458T151 441Z" />
<glyph unicode="&lt;" glyph-name="less" horiz-adv-x="584" d="M55 313V395L529 597V510L153 354L529 198V111L55 313Z" />
<glyph unicode="=" glyph-name="equal" horiz-adv-x="584" d="M56 503H528V421H56V503ZM56 285H528V203H56V285Z" />
<glyph unicode="&gt;" glyph-name="greater" horiz-adv-x="584" d="M529 313L55 111V198L431 354L55 510V597L529 395V313Z" />
<glyph unicode="?" glyph-name="question" horiz-adv-x="333" d="M82 595L129 691Q210 692 250 647T290 546Q290 496 265 440T209 343T157 256T139 175Q80 204 80 267Q80 312 108 359T164 451T192 534Q192 564 174 582T126 601Q115 601 82 595ZM129 111T154 111T196
94T214 51T197 9T154 -9T112 8T94 51T111 93Z" />
<glyph unicode="@" glyph-name="at" horiz-adv-x="1010" d="M891 9H981Q848 -210 548 -210Q318 -210 186 -93T54 229Q54 295 70 362T123 496T214 614T352 697T537 729Q719 729 837 622T956 348Q956 261 915 180T805 48T664 -2Q567 -2 567 80Q497 -1 419 -1Q342
-1 291 61T240 220Q240 337 319 433T494 529Q587 529 641 439L658 515H746L664 138Q651 78 696 78Q713 78 742 95T804 144T859 231T883 349Q883 482 784 570T533 658Q358 658 243 539T127 237Q127 59 238 -39T549 -138Q669 -138 756 -98T891 9ZM331 213Q331 149
361 110T439 71Q504 71 558 147T613 316Q613 381 583 419T500 458Q435 458 383 383T331 213Z" />
<glyph unicode="A" glyph-name="A" horiz-adv-x="667" d="M362 686L667 0H567L476 201H186L100 0H0L293 686H362ZM326 536L224 289H436L326 536Z" />
<glyph unicode="B" glyph-name="B" horiz-adv-x="563" d="M75 0V682H273Q376 682 429 631T483 508Q483 404 379 362V360Q456 346 499 299T543 182Q543 109 485 55T309 0H75ZM173 594V390H238Q382 390 382 499Q382 594 263 594H173ZM173 302V88H296Q375 88 408
119T442 196Q442 244 404 273T291 302H173Z" />
<glyph unicode="C" glyph-name="C" horiz-adv-x="708" d="M656 635V530Q534 601 421 601Q304 601 227 527T149 340Q149 225 225 153T425 81Q544 81 663 158V51Q548 -9 416 -9Q325 -9 252 23T136 107T71 217T48 331Q48 487 153 589T422 691Q522 691 656 635Z" />
<glyph unicode="D" glyph-name="D" horiz-adv-x="750" d="M76 0V682H341Q432 682 503 652T617 572T682 463T704 341Q704 203 604 102T342 0H76ZM174 594V88H330Q393 88 443 106T522 152T570 216T596 282T603 341Q603 451 532 522T325 594H174Z" />
<glyph unicode="E" glyph-name="E" horiz-adv-x="500" d="M462 682V594H173V388H452V300H173V88H471V0H75V682H462Z" />
<glyph unicode="F" glyph-name="F" horiz-adv-x="469" d="M440 682V594H174V405H440V317H174V0H76V682H440Z" />
<glyph unicode="G" glyph-name="G" horiz-adv-x="740" d="M673 336V47Q546 -9 413 -9Q256 -9 153 89T50 337Q50 488 155 589T416 691Q476 691 527 679T659 633V534Q537 601 414 601Q303 601 227 526T151 340Q151 226 228 154T427 81Q490 81 575 108V248H444V336H673Z" />
<glyph unicode="H" glyph-name="H" horiz-adv-x="729" d="M653 682V0H555V297H173V0H75V682H173V385H555V682H653Z" />
<glyph unicode="I" glyph-name="I" horiz-adv-x="250" d="M174 682V0H76V682H174Z" />
<glyph unicode="J" glyph-name="J" horiz-adv-x="250" d="M174 682V-8Q174 -110 129 -170T-14 -230Q-24 -230 -44 -228L-62 -137H-37Q36 -137 56 -103T76 21V682H174Z" />
<glyph unicode="K" glyph-name="K" horiz-adv-x="656" d="M285 359L655 0H520L173 337V0H75V682H173V370L460 682H582L285 359Z" />
<glyph unicode="L" glyph-name="L" horiz-adv-x="490" d="M172 682V88H480V0H74V682H172Z" />
<glyph unicode="M" glyph-name="M" horiz-adv-x="781" d="M709 682V0H611V531H609L399 267H383L173 531H171V0H73V682H165L391 402L618 682H709Z" />
<glyph unicode="N" glyph-name="N" horiz-adv-x="781" d="M706 682V0H622L166 525V0H74V682H152L614 154V682H706Z" />
<glyph unicode="O" glyph-name="O" horiz-adv-x="823" d="M45 341Q45 487 147 589T411 691Q575 691 676 590T778 341Q778 197 677 94T409 -9Q247 -9 146 94T45 341ZM146 453T146 341T221 155T411 81Q526 81 601 155T677 341T602 527T411 601Q297 601 222 527Z" />
<glyph unicode="P" glyph-name="P" horiz-adv-x="510" d="M70 682H283Q390 682 445 627T500 486Q500 401 442 348T270 295H168V0H70V682ZM168 594V383H279Q334 383 366 411T399 490Q399 534 372 564T283 594H168Z" />
<glyph unicode="Q" glyph-name="Q" horiz-adv-x="823" d="M754 -52L666 -139Q503 -127 331 0Q204 24 125 119T45 341Q45 495 150 593T421 691Q574 691 677 590T780 339Q780 215 700 120T496 0V-1Q589 -40 643 -51T751 -49L754 -52ZM417 601Q358 601 311 584T233
539T183 477T155 407T146 340Q146 230 217 156T419 81Q531 81 605 156T679 338Q679 450 605 525T417 601Z" />
<glyph unicode="R" glyph-name="R" horiz-adv-x="604" d="M77 682H249Q353 682 413 631T473 491Q473 432 444 389T359 324Q388 305 416 273T460 216T511 135Q538 91 604 0H487L397 140Q335 237 297 266T216 296H175V0H77V682ZM175 598V384H238Q311 384 342 415T372
495Q370 598 238 598H175Z" />
<glyph unicode="S" glyph-name="S" horiz-adv-x="458" d="M399 643V532Q324 603 239 603Q192 603 162 581T131 522Q131 492 153 466T207 423T278 382T349 334T404 268T426 176Q426 96 372 44T235 -9Q128 -9 44 54V178Q121 79 224 79Q277 79 306 106T335 165Q335
204 305 236T231 294T145 346T71 415T40 509Q40 592 96 641T247 691Q327 691 399 643Z" />
<glyph unicode="T" glyph-name="T" horiz-adv-x="604" d="M587 682V594H351V0H253V594H17V682H587Z" />
<glyph unicode="U" glyph-name="U" horiz-adv-x="708" d="M648 682V268Q648 139 571 65T345 -9Q227 -9 144 59T61 258V682H159V279Q159 222 168 192T200 139Q258 81 347 81Q452 81 507 136Q550 179 550 285V682H648Z" />
<glyph unicode="V" glyph-name="V" horiz-adv-x="604" d="M604 682L315 -6H295L0 682H98L303 203L507 682H604Z" />
<glyph unicode="W" glyph-name="W" horiz-adv-x="1042" d="M1041 682L764 -6H745L521 552L295 -6H276L0 682H98L286 212L475 682H568L758 212L944 682H1041Z" />
<glyph unicode="X" glyph-name="X" horiz-adv-x="708" d="M687 682L415 353L706 0H588L356 282L121 0H2L296 353L23 682H142L356 422L569 682H687Z" />
<glyph unicode="Y" glyph-name="Y" horiz-adv-x="604" d="M301 447L486 682H604L351 360V0H253V361L0 682H118L301 447Z" />
<glyph unicode="Z" glyph-name="Z" horiz-adv-x="646" d="M450 594H43V682H631L197 88H631V0H16L450 594Z" />
<glyph unicode="[" glyph-name="bracketleft" horiz-adv-x="333" d="M319 682V602H182V-141H319V-221H86V682H319Z" />
<glyph unicode="\" glyph-name="backslash" horiz-adv-x="281" d="M274 -9H204L8 691H78L274 -9Z" />
<glyph unicode="]" glyph-name="bracketright" horiz-adv-x="333" d="M14 -221V-141H151V602H14V682H247V-221H14Z" />
<glyph unicode="^" glyph-name="asciicircum" horiz-adv-x="469" d="M116 291H26L199 682H270L443 291H354L234 583L116 291Z" />
<glyph unicode="_" glyph-name="underscore" horiz-adv-x="500" d="M-6 -75H506V-125H-6V-75Z" />
<glyph unicode="`" glyph-name="grave" horiz-adv-x="333" d="M160 654L227 507H172L60 654H160Z" />
<glyph unicode="a" glyph-name="a" horiz-adv-x="427" d="M411 80V26Q358 -9 325 -9Q268 -9 257 37Q199 -9 136 -9Q88 -9 57 23T26 101Q26 127 36 148T57 181T95 207T134 226T179 243L258 271V295Q258 374 177 374Q97 374 35 300V397Q87 458 184 458Q256 458 301
421T347 310V79Q347 56 364 56Q379 56 411 80ZM258 91V222Q187 198 152 176T116 117Q116 89 134 72T180 54Q219 54 258 91Z" />
<glyph unicode="b" glyph-name="b" horiz-adv-x="500" d="M148 682V417Q205 458 272 458Q356 458 411 395T466 234Q466 120 403 56T226 -9Q130 -9 59 25V682H148ZM148 332V89Q194 75 238 75Q298 75 336 116T375 221Q375 292 341 335T250 378Q199 378 148 332Z" />
<glyph unicode="c" glyph-name="c" horiz-adv-x="438" d="M393 427V332Q327 376 269 376Q208 376 170 334T132 224Q132 155 173 115T284 75Q336 75 403 105V17Q347 -9 269 -9Q169 -9 105 54T41 216Q41 327 101 392T263 458Q323 458 393 427Z" />
<glyph unicode="d" glyph-name="d" horiz-adv-x="510" d="M451 682V0H262Q162 0 103 63T44 235Q44 333 107 395T268 458Q312 458 362 440V682H451ZM362 75V361Q319 378 279 378Q214 378 175 335T135 222Q135 75 272 75H362Z" />
<glyph unicode="e" glyph-name="e" horiz-adv-x="479" d="M438 130V44Q358 -9 259 -9Q159 -9 100 61T41 230Q41 332 99 395T251 458Q343 458 394 396T446 211H130Q151 76 281 76Q355 76 438 130ZM132 270H358Q356 321 328 351T253 381Q151 381 132 270Z" />
<glyph unicode="f" glyph-name="f" horiz-adv-x="250" d="M296 682V595Q276 603 256 603Q204 603 183 575T161 492V449H242V369H161V0H72V369H9V449H72V482Q72 544 86 581T129 648Q192 711 296 682Z" />
<glyph unicode="g" glyph-name="g" horiz-adv-x="427" d="M421 449V380H329Q376 333 376 282Q376 256 364 227T334 181Q309 154 262 144T184 126T152 96Q152 78 184 65T289 38Q419 12 419 -87Q419 -154 363 -192T207 -230Q116 -230 58 -192T0 -94Q0 -44 27 -14T113
30Q68 58 68 87Q68 109 87 126T139 151V153Q90 174 64 210Q40 244 40 294Q40 366 92 407T236 449H421ZM296 293Q296 325 270 348T209 372Q172 372 146 348T120 291Q120 254 145 232T210 209Q248 209 272 232T296 293ZM333 -94Q333 -68 307 -51T249 -28T186 -22Q141
-22 113 -41T84 -90Q84 -159 209 -159Q268 -159 300 -142T333 -94Z" />
<glyph unicode="h" glyph-name="h" horiz-adv-x="500" d="M150 682V390H152Q206 458 286 458Q355 458 397 411T439 275V0H350V278Q350 328 326 357T262 387Q208 387 150 322V0H61V682H150Z" />
<glyph unicode="i" glyph-name="i" horiz-adv-x="219" d="M154 449V0H65V449H154ZM163 607T163 585T148 548T110 532T73 547T57 585T72 622T110 638T147 623Z" />
<glyph unicode="j" glyph-name="j" horiz-adv-x="219" d="M150 449V-59Q150 -128 129 -166T61 -230L-6 -164Q61 -137 61 -66V449H150ZM159 607T159 585T144 548T106 532T69 547T53 585T68 622T106 638T143 623Z" />
<glyph unicode="k" glyph-name="k" horiz-adv-x="479" d="M460 449L268 229L500 0H380L155 229L354 449H460ZM151 682V0H62V682H151Z" />
<glyph unicode="l" glyph-name="l" horiz-adv-x="219" d="M154 682V0H65V682H154Z" />
<glyph unicode="m" glyph-name="m" horiz-adv-x="771" d="M59 449H148V390Q216 458 279 458Q367 458 413 377Q485 458 563 458Q631 458 671 410T712 282V0H623V278Q623 327 597 355T530 383Q487 384 430 326V0H341V279Q341 331 318 357T260 383Q226 383 201 371T148
326V0H59V449Z" />
<glyph unicode="n" glyph-name="n" horiz-adv-x="500" d="M150 449V390H152Q206 458 286 458Q353 458 396 412T439 277V0H350V278Q350 328 326 357T262 387Q208 387 150 322V0H61V449H150Z" />
<glyph unicode="o" glyph-name="o" horiz-adv-x="552" d="M273 458Q379 458 447 394T516 229Q516 123 449 57T273 -9Q170 -9 103 58T36 229Q36 326 104 392T273 458ZM272 378Q209 378 168 336T127 229Q127 158 167 115T272 71Q343 71 384 113T425 228Q425 293
382 335T272 378Z" />
<glyph unicode="p" glyph-name="p" horiz-adv-x="500" d="M146 11V-230H57V449H211Q334 449 399 391T464 221Q464 120 400 56T236 -9Q195 -9 146 11ZM146 369V91Q188 71 230 71Q292 71 332 114T373 222Q373 293 336 331T227 369H146Z" />
<glyph unicode="q" glyph-name="q" horiz-adv-x="500" d="M354 -230V7Q301 -9 264 -9Q164 -9 100 55T36 221Q36 246 41 272T62 332T103 390T174 432T279 449H443V-230H354ZM354 369H273Q214 369 171 331T127 222Q127 156 167 111T270 66Q312 66 354 86V369Z" />
<glyph unicode="r" glyph-name="r" horiz-adv-x="396" d="M69 449H158V346H160Q224 458 290 458Q342 458 397 406L350 329Q304 373 267 373Q221 373 190 333T158 235V0H69V449Z" />
<glyph unicode="s" glyph-name="s" horiz-adv-x="385" d="M324 421V333Q253 380 194 380Q167 380 151 369T135 339Q135 324 159 304T244 249Q300 212 322 185T345 123Q345 64 303 28T197 -9Q120 -9 41 32V128Q127 69 188 69Q217 71 235 84T254 120Q254 140 221
163T149 205T77 260T44 336Q44 393 84 425T192 458Q254 458 324 421Z" />
<glyph unicode="t" glyph-name="t" horiz-adv-x="333" d="M167 542V449H309V369H167V139Q167 103 187 87T231 71Q278 71 332 104V21Q277 -9 224 -9Q154 -9 116 30T78 132V369H0V379L167 542Z" />
<glyph unicode="u" glyph-name="u" horiz-adv-x="500" d="M437 0H348V57Q320 27 284 9T215 -9Q145 -9 103 38T60 170V449H149V164Q149 65 241 65Q303 65 348 128V449H437V0Z" />
<glyph unicode="v" glyph-name="v" horiz-adv-x="438" d="M206 -9L3 449H100L221 173L339 449H434L236 -9H206Z" />
<glyph unicode="w" glyph-name="w" horiz-adv-x="719" d="M393 449L507 177L624 449H719L521 -9H493L360 305L228 -9H200L0 449H95L213 177L327 449H393Z" />
<glyph unicode="x" glyph-name="x" horiz-adv-x="500" d="M487 449L302 228L500 0H386L245 161L112 0H0L189 228L0 449H112L245 295L373 449H487Z" />
<glyph unicode="y" glyph-name="y" horiz-adv-x="438" d="M438 449L120 -230H21L174 96L0 449H101L222 196L338 449H438Z" />
<glyph unicode="z" glyph-name="z" horiz-adv-x="417" d="M404 449L165 80H405V0H11L249 369H21V449H404Z" />
<glyph unicode="{" glyph-name="braceleft" horiz-adv-x="333" d="M28 219V299Q86 299 107 339T129 462V550Q129 641 161 684T271 728H310V652H295Q243 652 227 633T211 551V479Q211 379 189 331T109 259Q166 235 188 187T211 39V-33Q211 -95 227 -114T295 -134H310V-210H271Q193
-210 161 -167T129 -32V56Q129 139 108 179T28 219Z" />
<glyph unicode="|" glyph-name="bar" horiz-adv-x="260" d="M92 -250V750H168V-250H92Z" />
<glyph unicode="}" glyph-name="braceright" horiz-adv-x="333" d="M305 299V219Q247 219 226 179T204 56V-32Q204 -123 172 -166T62 -210H23V-134H38Q90 -134 106 -115T122 -33V39Q122 139 144 187T224 259Q167 283 145 331T122 479V551Q122 614 106 633T38 652H23V728H62Q140
728 172 685T204 550V462Q204 379 225 339T305 299Z" />
<glyph unicode="~" glyph-name="asciitilde" horiz-adv-x="584" d="M25 198V281Q101 345 174 345Q216 345 300 307T420 269Q478 269 560 336V253Q485 189 414 189Q373 189 289 227Q203 265 167 265Q112 265 25 198Z" />
</font>
</defs>
</svg>
