<?xml version="1.0" standalone="no"?> <!DOCTYPE svg PUBLIC "-//W3C//DTD SVG 1.0//EN" "http://www.w3.org/TR/2001/REC-SVG-20010904/DTD/svg10.dtd" > <svg xmlns="http://www.w3.org/2000/svg" width="100%" height="100%">
<defs >
<font id="gillsansstd-light" horiz-adv-x="393" ><font-face
    font-family="Gill Sans Std Light"
    units-per-em="1000"
    panose-1="2 11 3 2 2 1 4 2 2 3"
    ascent="682"
    descent="-318"
    alphabetic="0" />
<missing-glyph horiz-adv-x="500" d="M0 0V700H500V0H0ZM250 395L420 650H80L250 395ZM280 350L450 95V605L280 350ZM80 50H420L250 305L80 50ZM50 605V95L220 350L50 605Z" />
<glyph unicode=" " glyph-name="space" horiz-adv-x="278" />
<glyph unicode="!" glyph-name="exclam" horiz-adv-x="177" d="M121 97V0H56V97H121ZM121 682L104 192H73L56 682H121Z" />
<glyph unicode="&quot;" glyph-name="quotedbl" horiz-adv-x="278" d="M175 684H241V575L229 450H187L175 575V684ZM37 684H103V575L91 450H49L37 575V684Z" />
<glyph unicode="#" glyph-name="numbersign" horiz-adv-x="660" d="M261 698H307L265 493H455L498 698H544L501 493H583V447H492L452 256H583V210H442L400 7H354L396 210H206L164 7H118L160 210H77V256H170L209 447H77V493H219L261 698ZM255 447L216 256H406L446
447H255Z" />
<glyph unicode="$" glyph-name="dollar" horiz-adv-x="521" d="M455 600V544Q408 578 371 593T284 614V353Q384 326 434 281T484 166Q484 141 474 115T443 61T380 14T284 -9V-117H236V-9Q118 0 35 71V126Q94 83 137 65T236 38V315Q136 345 88 389T40 495Q40 521
50 547T82 598T143 641T236 661V691H284V661Q339 657 375 644T455 600ZM236 368V614Q171 613 131 578T91 498Q91 408 236 368ZM284 299V38Q348 41 390 77T433 163Q433 212 399 243T284 299Z" />
<glyph unicode="%" glyph-name="percent" horiz-adv-x="698" d="M679 216T679 149T632 35T518 -12Q451 -12 404 35T357 149T404 263T518 310Q584 310 631 263ZM636 100T636 149T602 232T518 267T435 232T400 149Q400 100 434 66T518 31T601 65ZM341 597T341 530T294
416T180 369Q113 369 66 416T19 530T66 644T180 691Q246 691 293 644ZM298 481T298 530T264 613T180 648T97 613T62 530Q62 481 96 447T180 412T263 446ZM645 688L96 -11H46L596 688H645Z" />
<glyph unicode="&amp;" glyph-name="ampersand" horiz-adv-x="615" d="M508 340H564Q532 240 470 147L609 0H542L439 107Q387 48 333 20T204 -9Q124 -9 75 35T26 153Q26 218 69 272T195 361Q151 407 131 444T110 520Q110 583 157 626T272 669Q336 669 378 629T421
528Q421 420 278 347L433 186Q479 256 508 340ZM244 384Q372 436 372 523Q372 565 343 592T269 620Q223 620 192 592T161 523Q161 460 244 384ZM403 144L230 324Q152 290 118 252T83 160Q83 103 118 72T215 40Q317 40 403 144Z" />
<glyph unicode="&apos;" glyph-name="quotesingle" horiz-adv-x="222" d="M78 684H144V575L132 450H90L78 575V684Z" />
<glyph unicode="(" glyph-name="parenleft" horiz-adv-x="333" d="M131 357T131 231T181 -19T326 -230H276Q80 -34 80 231T275 691H325Q231 605 181 481Z" />
<glyph unicode=")" glyph-name="parenright" horiz-adv-x="333" d="M202 105T202 231T152 481T7 691H57Q253 495 253 231Q253 -34 57 -230H7Q102 -144 152 -20Z" />
<glyph unicode="*" glyph-name="asterisk" horiz-adv-x="469" d="M395 613L255 500L257 495L437 511V464L257 484L254 478L395 364L361 330L245 471L240 470L257 285H211L229 470L225 471L110 330L75 364L217 478L215 483L32 466V512L214 494L215 500L75 613L110
648L224 509L229 511L211 691H257L240 512L245 509L361 648L395 613Z" />
<glyph unicode="+" glyph-name="plus" horiz-adv-x="660" d="M68 373H308V613H352V373H592V329H352V89H308V329H68V373Z" />
<glyph unicode="," glyph-name="comma" horiz-adv-x="177" d="M121 97V21Q121 -19 105 -56T56 -117V-82Q77 -51 77 0H56V97H121Z" />
<glyph unicode="-" glyph-name="hyphen" horiz-adv-x="313" d="M275 249V202H38V249H275Z" />
<glyph unicode="." glyph-name="period" horiz-adv-x="177" d="M121 97V0H56V97H121Z" />
<glyph unicode="/" glyph-name="slash" horiz-adv-x="281" d="M223 691H269L50 -9H3L223 691Z" />
<glyph unicode="0" glyph-name="zero" horiz-adv-x="500" d="M468 338Q468 178 406 85T252 -9Q155 -9 94 84T32 329Q32 543 125 636Q180 691 250 691T373 638Q468 543 468 338ZM417 343Q417 420 400 486T344 597T250 643Q177 643 130 559T83 341Q83 207 129 123T248
39Q301 39 340 82T398 193T417 343Z" />
<glyph unicode="1" glyph-name="one" horiz-adv-x="500" d="M275 682V0H224V682H275Z" />
<glyph unicode="2" glyph-name="two" horiz-adv-x="500" d="M45 569V629Q121 691 204 691Q288 691 346 634T404 495Q404 333 153 47H470V0H37Q353 304 353 494Q353 558 309 600T200 643Q160 643 127 627T45 569Z" />
<glyph unicode="3" glyph-name="three" horiz-adv-x="500" d="M74 598V647Q134 691 218 691Q307 691 364 643T421 519Q421 466 390 424T297 363V361Q429 317 429 187Q429 92 367 42T225 -9Q138 -9 68 25V72Q138 39 219 39Q290 39 334 79T378 184Q378 254 331 295T202
335V383Q279 383 324 422T370 515Q370 570 326 606T214 643Q141 643 74 598Z" />
<glyph unicode="4" glyph-name="four" horiz-adv-x="500" d="M376 691V304H471V263H376V0H325V263H14V280L357 691H376ZM325 304V592H323L85 304H325Z" />
<glyph unicode="5" glyph-name="five" horiz-adv-x="500" d="M386 682V635H145V419Q267 437 346 381T426 212Q426 117 363 54T205 -9Q127 -9 41 36V94Q137 39 207 39Q280 39 327 86T375 208Q375 262 352 301T289 357T200 378T97 364V682H386Z" />
<glyph unicode="6" glyph-name="six" horiz-adv-x="500" d="M345 691L375 655Q272 583 204 493T121 316Q193 369 272 369Q354 369 408 316T463 183Q463 99 409 45T269 -9Q174 -9 118 56T61 231Q61 365 135 477T345 691ZM112 257Q101 158 146 99T266 39Q328 39
370 78T412 176Q412 237 370 279T265 321Q186 321 112 257Z" />
<glyph unicode="7" glyph-name="seven" horiz-adv-x="500" d="M475 682L163 -9L119 10L401 635H29V682H475Z" />
<glyph unicode="8" glyph-name="eight" horiz-adv-x="500" d="M158 355Q69 415 69 509Q69 583 122 637T249 691Q324 691 377 638T431 510Q431 414 344 355Q445 294 445 186Q445 104 389 48T252 -9Q170 -9 113 46T56 182Q56 294 158 355ZM251 377Q307 377 343 415T380
512Q380 567 342 605T249 643Q195 643 158 605T120 510T158 416T251 377ZM249 329Q189 329 148 287T107 184T148 82T252 39Q315 39 354 81T394 189Q394 248 352 288T249 329Z" />
<glyph unicode="9" glyph-name="nine" horiz-adv-x="500" d="M144 -9L116 28Q238 117 297 198T372 365Q291 314 222 314Q141 314 87 367T32 501Q32 584 86 637T224 691Q322 691 378 627T434 452Q434 198 144 -9ZM381 426Q389 525 349 584T227 643Q167 643 125
604T83 504Q83 443 123 403T224 362Q310 362 381 426Z" />
<glyph unicode=":" glyph-name="colon" horiz-adv-x="177" d="M121 449V352H56V449H121ZM121 97V0H56V97H121Z" />
<glyph unicode=";" glyph-name="semicolon" horiz-adv-x="177" d="M121 97V21Q121 -19 105 -56T56 -117V-82Q77 -51 77 0H56V97H121ZM121 449V352H56V449H121Z" />
<glyph unicode="&lt;" glyph-name="less" horiz-adv-x="660" d="M68 329V371L592 591V542L128 350L592 158V109L68 329Z" />
<glyph unicode="=" glyph-name="equal" horiz-adv-x="660" d="M68 493H592V449H68V493ZM68 252H592V208H68V252Z" />
<glyph unicode="&gt;" glyph-name="greater" horiz-adv-x="660" d="M592 329L68 109V158L532 350L68 542V591L592 371V329Z" />
<glyph unicode="?" glyph-name="question" horiz-adv-x="281" d="M25 595L48 673Q84 691 116 691Q172 691 206 652T241 549Q241 501 221 455T177 379T132 312T112 242Q112 212 131 179L113 165Q74 210 74 257Q74 290 92 329T132 398T172 471T190 554Q190 593 168
620T115 648Q67 648 35 595H25ZM150 97V0H85V97H150Z" />
<glyph unicode="@" glyph-name="at" horiz-adv-x="800" d="M558 505H619L536 113Q528 82 531 68T554 54Q579 54 610 73T672 125T724 215T745 336Q745 377 737 417T705 500T647 576T553 630T419 651Q252 651 146 542T39 260Q39 90 145 -14T424 -119Q638 -119 752
33H802Q747 -61 645 -110T423 -159Q233 -159 116 -43T-2 261Q-2 325 13 385T62 502T145 599T266 666T425 691Q518 691 590 659T704 575T765 462T786 336Q786 196 704 103T534 10Q460 10 479 98L477 100Q402 10 312 10Q239 10 191 68T143 216Q143 334 216 425T394
517Q439 517 478 494T540 423H542L558 505ZM518 336Q518 396 483 435T393 474Q333 474 288 428T224 324T205 213Q205 146 240 102T330 57T429 105T496 217T518 336Z" />
<glyph unicode="A" glyph-name="A" horiz-adv-x="667" d="M348 687L663 0H608L500 236H167L59 0H4L319 687H348ZM480 280L333 601L187 280H480Z" />
<glyph unicode="B" glyph-name="B" horiz-adv-x="531" d="M80 682H222Q288 682 334 666T405 623T439 568T449 506Q449 408 351 354Q509 321 509 181Q509 97 447 49T280 0H80V682ZM133 638V366H206Q392 366 392 502T204 638H133ZM133 322V44H274Q370 44 411 85T452
182Q452 322 251 322H133Z" />
<glyph unicode="C" glyph-name="C" horiz-adv-x="677" d="M647 634V576Q522 642 404 642Q276 642 191 556T106 340Q106 208 191 124T411 40Q521 40 654 110V55Q534 -9 412 -9Q256 -9 153 90T49 340Q49 492 155 591T407 691Q522 691 647 634Z" />
<glyph unicode="D" glyph-name="D" horiz-adv-x="740" d="M79 682H318Q402 682 468 661T574 606T642 526T679 435T690 341Q690 278 671 221T611 112T497 31T327 0H79V682ZM132 638V44H324Q454 44 543 123T633 341Q633 472 547 555T321 638H132Z" />
<glyph unicode="E" glyph-name="E" horiz-adv-x="490" d="M452 682V638H133V365H444V321H133V44H460V0H80V682H452Z" />
<glyph unicode="F" glyph-name="F" horiz-adv-x="438" d="M429 682V638H131V379H400V335H131V0H78V682H429Z" />
<glyph unicode="G" glyph-name="G" horiz-adv-x="719" d="M650 633V573Q528 642 408 642Q278 642 193 557T107 341Q107 282 126 229T184 134T283 66T423 40Q526 40 610 82V266H466V310H663V49Q543 -9 421 -9Q262 -9 156 91T50 343Q50 493 154 592T416 691Q521
691 650 633Z" />
<glyph unicode="H" glyph-name="H" horiz-adv-x="719" d="M640 682V0H587V323H132V0H79V682H132V367H587V682H640Z" />
<glyph unicode="I" glyph-name="I" horiz-adv-x="208" d="M131 682V0H78V682H131Z" />
<glyph unicode="J" glyph-name="J" horiz-adv-x="208" d="M135 682V0Q135 -112 94 -153Q63 -184 36 -193T-40 -197L-45 -147Q15 -161 48 -126T82 -14V682H135Z" />
<glyph unicode="K" glyph-name="K" horiz-adv-x="531" d="M522 682L197 342L553 0H486L129 341V0H76V682H129V342L456 682H522Z" />
<glyph unicode="L" glyph-name="L" horiz-adv-x="469" d="M132 682V44H469V0H79V682H132Z" />
<glyph unicode="M" glyph-name="M" horiz-adv-x="781" d="M390 365L650 682H703V0H650V605H648L390 286L132 605H130V0H77V682H130L390 365Z" />
<glyph unicode="N" glyph-name="N" horiz-adv-x="771" d="M693 682V0H649L131 596V0H78V682H123L640 86V682H693Z" />
<glyph unicode="O" glyph-name="O" horiz-adv-x="823" d="M773 488T773 341T668 93T411 -9Q260 -9 156 92T51 341T155 589T411 691Q563 691 668 590ZM716 214T716 341T629 555T413 642T197 555T108 341T196 127T413 40T628 127Z" />
<glyph unicode="P" glyph-name="P" horiz-adv-x="510" d="M78 682H266Q379 682 434 632T489 502Q489 467 478 436T442 378T371 335T261 319H131V0H78V682ZM131 638V363H258Q348 363 390 401T432 501Q432 561 391 599T264 638H131Z" />
<glyph unicode="Q" glyph-name="Q" horiz-adv-x="823" d="M743 -74L684 -143Q507 -121 374 -9Q232 2 142 104T51 340Q51 489 154 590T411 691Q566 691 669 591T773 342Q773 305 765 266T733 180T676 97T583 31T451 -9Q500 -44 559 -66T665 -89Q697 -89 732 -64L743
-74ZM716 341Q716 468 628 555T412 642Q285 642 197 554T108 341T195 128T409 40Q536 40 626 127T716 341Z" />
<glyph unicode="R" glyph-name="R" horiz-adv-x="573" d="M79 682H254Q371 682 425 632T480 506Q480 388 350 340Q384 322 441 236L595 0H533L414 187Q355 281 322 304T224 327H132V0H79V682ZM132 638V371H245Q333 371 378 406T423 505Q423 566 378 602T243 638H132Z" />
<glyph unicode="S" glyph-name="S" horiz-adv-x="469" d="M400 648V590Q348 620 315 631T247 642Q186 642 145 605T103 512Q103 470 127 441T187 398T265 367T344 331T404 273T428 178Q428 99 371 45T230 -9Q145 -9 55 51V113Q112 72 149 56T227 40Q288 40 329
79T371 176Q371 221 347 252T287 299T209 331T130 366T70 420T46 510Q46 586 103 638T242 691Q321 691 400 648Z" />
<glyph unicode="T" glyph-name="T" horiz-adv-x="573" d="M569 682V638H313V0H260V638H4V682H569Z" />
<glyph unicode="U" glyph-name="U" horiz-adv-x="698" d="M582 682H635V310Q635 226 611 162T544 62T453 9T349 -9Q227 -9 146 71T64 298V682H117V300Q117 173 183 107T349 40Q446 40 514 106T582 307V682Z" />
<glyph unicode="V" glyph-name="V" horiz-adv-x="594" d="M591 682L305 -7H290L3 682H56L298 105L538 682H591Z" />
<glyph unicode="W" glyph-name="W" horiz-adv-x="1031" d="M516 569L287 -7H273L-1 682H53L279 116L508 682H524L752 116L978 682H1032L758 -7H745L516 569Z" />
<glyph unicode="X" glyph-name="X" horiz-adv-x="688" d="M344 388L603 682H671L378 349L688 0H620L344 312L68 0H0L309 349L16 682H84L344 388Z" />
<glyph unicode="Y" glyph-name="Y" horiz-adv-x="583" d="M583 682L318 366V0H265V366L0 682H64L292 412L519 682H583Z" />
<glyph unicode="Z" glyph-name="Z" horiz-adv-x="635" d="M602 682L607 663L96 44H611V0H14L9 15L520 638H32V682H602Z" />
<glyph unicode="[" glyph-name="bracketleft" horiz-adv-x="302" d="M117 635V-173H295V-220H69V682H295V635H117Z" />
<glyph unicode="\" glyph-name="backslash" horiz-adv-x="281" d="M232 -9L12 691H59L278 -9H232Z" />
<glyph unicode="]" glyph-name="bracketright" horiz-adv-x="302" d="M185 -173V635H7V682H233V-220H7V-173H185Z" />
<glyph unicode="^" glyph-name="asciicircum" horiz-adv-x="660" d="M330 691L549 429L517 403L330 628L142 403L111 429L330 691Z" />
<glyph unicode="_" glyph-name="underscore" horiz-adv-x="500" d="M-6 -75H506V-125H-6V-75Z" />
<glyph unicode="`" glyph-name="grave" horiz-adv-x="333" d="M77 677H158L262 521H229L77 677Z" />
<glyph unicode="a" glyph-name="a" horiz-adv-x="427" d="M421 78V38L413 32Q359 -9 330 -9Q314 -9 308 2T298 47Q226 -9 157 -9Q106 -9 71 24T36 105Q36 160 75 197T171 250T298 269V326Q298 418 198 418Q163 418 133 405T61 361V410Q139 458 206 458Q239 458
268 449T321 413T346 341V61Q346 38 357 38Q370 38 421 78ZM298 89V229Q209 233 147 198T84 105Q84 73 109 52T173 31Q233 31 298 89Z" />
<glyph unicode="b" glyph-name="b" horiz-adv-x="510" d="M62 25V682H110V385Q148 423 184 440T272 458Q360 458 416 397T472 239Q472 126 404 59T221 -9Q148 -9 62 25ZM110 331V59Q166 38 220 38Q308 38 364 94T421 236Q421 315 378 366T266 418Q187 418 110 331Z" />
<glyph unicode="c" glyph-name="c" horiz-adv-x="417" d="M379 436V383Q313 411 262 411Q187 411 140 359T93 223Q93 138 140 88T266 38Q322 38 387 64V14Q318 -9 262 -9Q163 -9 103 53T42 218Q42 324 103 391T260 458Q310 458 379 436Z" />
<glyph unicode="d" glyph-name="d" horiz-adv-x="510" d="M449 682V0H401V35Q337 -9 268 -9Q172 -9 107 58T41 225Q41 326 105 392T268 458Q328 458 401 422V682H449ZM401 79V369Q335 411 270 411Q192 411 142 360T92 228Q92 146 145 92T280 38Q340 38 401 79Z" />
<glyph unicode="e" glyph-name="e" horiz-adv-x="479" d="M445 241H91Q81 157 136 98T270 38Q354 38 437 105V51Q359 -9 264 -9Q166 -9 103 58T40 230Q40 329 98 393T246 458Q326 458 385 402T445 241ZM97 280H388Q363 411 246 411Q190 411 150 376T97 280Z" />
<glyph unicode="f" glyph-name="f" horiz-adv-x="240" d="M332 672V627Q282 644 251 644Q195 644 169 610T142 505V449H229V410H142V0H94V410H11V449H94V523Q94 604 141 647T250 691Q284 691 332 672Z" />
<glyph unicode="g" glyph-name="g" horiz-adv-x="427" d="M417 449V410H315Q377 352 377 291Q377 235 351 200T287 150T212 128T149 106T122 69T144 36T198 25T269 20T339 7T394 -27T416 -99Q416 -161 363 -195T215 -230Q117 -230 68 -196T18 -110Q18 -67 52 -39T149
-1V1Q76 18 76 65Q76 93 98 108T166 138V140Q104 158 75 200T46 289Q46 354 92 401T237 449H417ZM331 290Q331 339 296 374T210 409T126 375T92 292Q92 241 126 206T211 170Q260 170 295 205T331 290ZM370 -103Q370 -24 227 -24Q64 -24 64 -107Q64 -147 104 -168T218
-190Q287 -190 328 -167T370 -103Z" />
<glyph unicode="h" glyph-name="h" horiz-adv-x="490" d="M110 682V371H112Q143 418 177 438T260 458Q335 458 381 410T427 275V0H379V256Q379 411 257 411Q209 411 176 388T110 315V0H62V682H110Z" />
<glyph unicode="i" glyph-name="i" horiz-adv-x="188" d="M118 449V0H70V449H118ZM118 682V600H70V682H118Z" />
<glyph unicode="j" glyph-name="j" horiz-adv-x="188" d="M116 449V-50Q116 -140 78 -185T-17 -230L-28 -189Q21 -187 44 -157T68 -49V449H116ZM116 682V600H68V682H116Z" />
<glyph unicode="k" glyph-name="k" horiz-adv-x="427" d="M107 682V0H59V682H107ZM425 449L179 236L463 0H397L114 236L362 449H425Z" />
<glyph unicode="l" glyph-name="l" horiz-adv-x="188" d="M118 682V0H70V682H118Z" />
<glyph unicode="m" glyph-name="m" horiz-adv-x="771" d="M108 449V370H110Q140 417 173 437T253 458Q355 458 398 350Q432 407 469 432T554 458Q625 458 667 408T710 276V0H662V255Q662 325 632 368T545 411Q504 411 474 387T409 306V0H361V256Q361 334 328 372T243
411Q202 411 171 389T108 315V0H60V449H108Z" />
<glyph unicode="n" glyph-name="n" horiz-adv-x="490" d="M110 449V371H112Q143 418 177 438T260 458Q335 458 381 410T427 274V0H379V256Q379 332 348 371T257 411Q209 411 175 388T110 315V0H62V449H110Z" />
<glyph unicode="o" glyph-name="o" horiz-adv-x="542" d="M499 224Q499 124 434 58T271 -9T108 57T42 224T107 391T271 458T434 392T499 224ZM448 144T448 224T398 357T271 411Q194 411 144 358T93 224Q93 144 143 91T271 38Q347 38 397 91Z" />
<glyph unicode="p" glyph-name="p" horiz-adv-x="510" d="M111 449V424Q180 458 246 458Q342 458 405 392T468 226Q468 127 403 59T244 -9Q180 -9 111 25V-230H63V449H111ZM111 378V72Q174 38 235 38Q316 38 365 88T415 222Q415 304 363 357T229 411Q173 411 111 378Z" />
<glyph unicode="q" glyph-name="q" horiz-adv-x="510" d="M447 449V-230H399V26Q322 -9 252 -9Q157 -9 97 54T37 216Q37 320 100 389T259 458Q326 458 399 418V449H447ZM399 74V371Q332 411 269 411Q192 411 140 354T88 212Q88 132 135 84T262 35Q329 35 399 74Z" />
<glyph unicode="r" glyph-name="r" horiz-adv-x="333" d="M373 405L345 360Q289 411 255 411Q187 411 111 282V0H63V449H111V331H113Q193 458 270 458Q313 458 373 405Z" />
<glyph unicode="s" glyph-name="s" horiz-adv-x="354" d="M309 420V368Q239 414 186 414Q145 414 118 392T90 338Q90 309 114 289T172 257T240 231T299 187T323 115Q323 62 281 27T176 -9Q108 -9 41 32V79Q122 38 182 38Q223 38 250 60T277 116Q277 145 253 165T195
198T126 225T68 267T44 335Q44 387 86 422T189 458Q243 458 309 420Z" />
<glyph unicode="t" glyph-name="t" horiz-adv-x="302" d="M150 598V449H276V410H150V143Q150 108 151 93T158 63T178 43T217 38Q250 38 299 60V14Q288 8 258 -1Q224 -9 206 -9Q164 -9 133 15T102 87V410H-19V449H102V556L135 598H150Z" />
<glyph unicode="u" glyph-name="u" horiz-adv-x="490" d="M379 0V74H377Q345 29 313 10T229 -9Q162 -9 112 35T62 171V449H110V172Q110 107 145 73T233 38Q283 38 315 61T379 134V449H427V0H379Z" />
<glyph unicode="v" glyph-name="v" horiz-adv-x="427" d="M427 449L234 -9H204L0 449H49L218 71L380 449H427Z" />
<glyph unicode="w" glyph-name="w" horiz-adv-x="708" d="M708 449L514 -9H491L353 356L214 -9H192L0 449H47L200 83L341 449H367L504 83L660 449H708Z" />
<glyph unicode="x" glyph-name="x" horiz-adv-x="479" d="M244 197L68 0H6L211 230L6 449H68L244 263L420 449H482L276 230L482 0H420L244 197Z" />
<glyph unicode="y" glyph-name="y" horiz-adv-x="417" d="M423 449L87 -230H38L195 87L6 449H56L219 135L374 449H423Z" />
<glyph unicode="z" glyph-name="z" horiz-adv-x="396" d="M381 449L385 434L90 44H385V0H15L10 15L307 405H29V449H381Z" />
<glyph unicode="{" glyph-name="braceleft" horiz-adv-x="333" d="M49 194V258Q101 259 122 296T143 422V519Q143 607 178 646T286 682V628Q235 628 217 607T198 519V422Q198 341 175 293T101 226Q152 207 175 159T198 30V-67Q198 -134 216 -155T286 -176V-230Q214
-234 179 -195T143 -67V30Q143 119 122 156T49 194Z" />
<glyph unicode="|" glyph-name="bar" horiz-adv-x="222" d="M86 750H134V-250H86V750Z" />
<glyph unicode="}" glyph-name="braceright" horiz-adv-x="333" d="M284 258V194Q232 193 211 156T190 30V-67Q190 -155 155 -194T47 -230V-176Q98 -176 116 -155T135 -67V30Q135 111 158 159T232 226Q181 245 158 293T135 422V519Q135 586 117 607T47 628V682Q119
686 154 647T190 519V422Q190 333 211 296T284 258Z" />
<glyph unicode="~" glyph-name="asciitilde" horiz-adv-x="660" d="M67 291V345Q148 404 207 404Q246 404 335 365T453 325Q481 325 510 339T592 391V337Q511 278 455 278Q415 278 329 317T208 357Q177 357 149 344T67 291Z" />
</font>
</defs>
</svg>
